<svg width="295" height="36" viewBox="0 0 295 36" fill="none"
    xmlns="http://www.w3.org/2000/svg">
    <path d="M92.7083 28.5H72.2917V12H92.7083M92.7083 4.5H91.25V1.5H88.3333V4.5H76.6667V1.5H73.75V4.5H72.2917C71.5181 4.5 70.7763 4.81607 70.2293 5.37868C69.6823 5.94129 69.375 6.70435 69.375 7.5V28.5C69.375 29.2956 69.6823 30.0587 70.2293 30.6213C70.7763 31.1839 71.5181 31.5 72.2917 31.5H92.7083C93.4819 31.5 94.2237 31.1839 94.7707 30.6213C95.3177 30.0587 95.625 29.2956 95.625 28.5V7.5C95.625 6.70435 95.3177 5.94129 94.7707 5.37868C94.2237 4.81607 93.4819 4.5 92.7083 4.5ZM89.1063 16.59L87.5604 15L80.4438 22.32L77.3521 19.14L75.8063 20.73L80.4438 25.5L89.1063 16.59Z" fill="#D94F04"/>
    <path d="M277.5 7C279.047 7 280.531 7.63214 281.625 8.75736C282.719 9.88258 283.333 11.4087 283.333 13C283.333 14.5913 282.719 16.1174 281.625 17.2426C280.531 18.3679 279.047 19 277.5 19C275.953 19 274.469 18.3679 273.375 17.2426C272.281 16.1174 271.667 14.5913 271.667 13C271.667 11.4087 272.281 9.88258 273.375 8.75736C274.469 7.63214 275.953 7 277.5 7ZM277.5 22C283.946 22 289.167 24.685 289.167 28V31H265.833V28C265.833 24.685 271.054 22 277.5 22Z" fill="#D94F04"/>
    <path fill-rule="evenodd" clip-rule="evenodd" d="M23.3333 10.5H26.25V25.5H23.3333V18.75H11.6667V25.5H8.75V10.5H11.6667V17.25H23.3333V10.5ZM4.37501 17.25V12.75H7.29167V23.25H4.37501V18.75H2.91667V17.25H4.37501ZM32.0833 18.75H30.625V23.25H27.7083V12.75H30.625V17.25H32.0833V18.75Z" fill="#D94F04"/>
    <path d="M148.229 15.375C148.229 15.0766 148.344 14.7905 148.55 14.5795C148.755 14.3685 149.033 14.25 149.323 14.25H154.427C154.717 14.25 154.995 14.3685 155.2 14.5795C155.406 14.7905 155.521 15.0766 155.521 15.375C155.521 15.6734 155.406 15.9595 155.2 16.1705C154.995 16.3815 154.717 16.5 154.427 16.5H149.323C149.033 16.5 148.755 16.3815 148.55 16.1705C148.344 15.9595 148.229 15.6734 148.229 15.375ZM149.323 22.5C149.033 22.5 148.755 22.6185 148.55 22.8295C148.344 23.0405 148.229 23.3266 148.229 23.625C148.229 23.9234 148.344 24.2095 148.55 24.4205C148.755 24.6315 149.033 24.75 149.323 24.75H154.427C154.717 24.75 154.995 24.6315 155.2 24.4205C155.406 24.2095 155.521 23.9234 155.521 23.625C155.521 23.3266 155.406 23.0405 155.2 22.8295C154.995 22.6185 154.717 22.5 154.427 22.5H149.323ZM145.721 14.67C145.828 14.567 145.914 14.4428 145.974 14.3048C146.034 14.1668 146.066 14.0178 146.069 13.8668C146.071 13.7157 146.044 13.5657 145.989 13.4256C145.934 13.2855 145.852 13.1583 145.749 13.0514C145.645 12.9446 145.521 12.8604 145.385 12.8038C145.249 12.7472 145.103 12.7194 144.956 12.7221C144.809 12.7248 144.664 12.7578 144.53 12.8193C144.396 12.8808 144.275 12.9695 144.175 13.08L142.031 15.285L141.346 14.58C141.138 14.3813 140.864 14.2731 140.581 14.2782C140.298 14.2834 140.027 14.4014 139.827 14.6076C139.626 14.8137 139.512 15.0918 139.507 15.3832C139.502 15.6747 139.607 15.9567 139.8 16.17L141.258 17.67C141.463 17.8807 141.741 17.999 142.031 17.999C142.321 17.999 142.599 17.8807 142.804 17.67L145.721 14.67ZM145.721 21.33C145.926 21.5409 146.041 21.8269 146.041 22.125C146.041 22.4231 145.926 22.7091 145.721 22.92L142.804 25.92C142.599 26.1307 142.321 26.249 142.031 26.249C141.741 26.249 141.463 26.1307 141.258 25.92L139.8 24.42C139.693 24.317 139.606 24.1928 139.547 24.0548C139.487 23.9168 139.455 23.7678 139.452 23.6168C139.449 23.4657 139.476 23.3157 139.531 23.1756C139.586 23.0355 139.668 22.9083 139.772 22.8014C139.876 22.6946 140 22.6104 140.136 22.5538C140.272 22.4972 140.418 22.4694 140.565 22.4721C140.712 22.4748 140.857 22.5078 140.991 22.5693C141.125 22.6308 141.246 22.7195 141.346 22.83L142.031 23.535L144.175 21.33C144.38 21.1193 144.658 21.001 144.948 21.001C145.238 21.001 145.516 21.1193 145.721 21.33ZM153.325 6.126C153.263 5.27629 152.892 4.48179 152.285 3.90198C151.678 3.32217 150.88 2.99995 150.052 3H144.948C144.141 3.00003 143.362 3.30601 142.76 3.85946C142.159 4.4129 141.777 5.17498 141.687 6H139.115C138.244 6 137.41 6.35558 136.794 6.98851C136.179 7.62145 135.833 8.47989 135.833 9.375V29.625C135.833 30.5201 136.179 31.3785 136.794 32.0115C137.41 32.6444 138.244 33 139.115 33H155.885C156.316 33 156.743 32.9127 157.141 32.7431C157.539 32.5735 157.901 32.3249 158.206 32.0115C158.51 31.6981 158.752 31.326 158.917 30.9166C159.082 30.5071 159.167 30.0682 159.167 29.625V9.375C159.167 8.93179 159.082 8.49292 158.917 8.08344C158.752 7.67397 158.51 7.30191 158.206 6.98851C157.901 6.67512 157.539 6.42652 157.141 6.25691C156.743 6.0873 156.316 6 155.885 6H153.313L153.325 6.126ZM153.325 6.144L153.333 6.375C153.333 6.297 153.33 6.2205 153.326 6.144H153.325ZM144.948 9.75H150.052C151.19 9.75 152.191 9.1545 152.781 8.25H155.885C156.175 8.25 156.454 8.36853 156.659 8.5795C156.864 8.79048 156.979 9.07663 156.979 9.375V29.625C156.979 29.9234 156.864 30.2095 156.659 30.4205C156.454 30.6315 156.175 30.75 155.885 30.75H139.115C138.825 30.75 138.546 30.6315 138.341 30.4205C138.136 30.2095 138.021 29.9234 138.021 29.625V9.375C138.021 9.07663 138.136 8.79048 138.341 8.5795C138.546 8.36853 138.825 8.25 139.115 8.25H142.219C142.809 9.1545 143.81 9.75 144.948 9.75ZM144.948 5.25H150.052C150.342 5.25 150.62 5.36853 150.825 5.5795C151.031 5.79048 151.146 6.07663 151.146 6.375C151.146 6.67337 151.031 6.95952 150.825 7.1705C150.62 7.38147 150.342 7.5 150.052 7.5H144.948C144.658 7.5 144.38 7.38147 144.175 7.1705C143.969 6.95952 143.854 6.67337 143.854 6.375C143.854 6.07663 143.969 5.79048 144.175 5.5795C144.38 5.36853 144.658 5.25 144.948 5.25Z" fill="#D94F04"/>
    <path d="M219.062 6.75H224.531V32.625H200.469V6.75H205.938V9H219.062V6.75ZM204.844 18H220.156V15.75H204.844V18ZM204.844 27H220.156V24.75H204.844V27ZM208.125 6.75V3.375H216.875V6.75H208.125Z" fill="#D94F04"/>
</svg>
