<svg width="116" height="110" viewBox="0 0 116 110" fill="none"
    xmlns="http://www.w3.org/2000/svg">
    <path d="M43.6378 32.8367C43.9607 32.2204 44.4704 31.7109 45.1007 31.3741C45.731 31.0374 46.4528 30.8891 47.1726 30.9484C47.8924 31.0077 48.5769 31.2718 49.1374 31.7066C49.6978 32.1414 50.1083 32.7267 50.3156 33.3867L58.5164 59.4602L65.2753 46.5867C65.5747 46.0158 66.0349 45.5357 66.6044 45.2002C67.1738 44.8646 67.83 44.6869 68.4993 44.6869C69.1687 44.6869 69.8249 44.8646 70.3943 45.2002C70.9637 45.5357 71.4239 46.0158 71.7233 46.5867L77.928 58.4375H99.7278C102.973 52.0565 104.62 45.0437 104.538 37.9521C104.396 24.6082 93.1694 13.75 79.5119 13.75C68.6773 13.75 61.4881 20.0965 57.6761 24.707C53.873 20.09 46.6748 13.75 35.8403 13.75C22.1828 13.75 10.9562 24.6082 10.8143 37.9521C10.756 42.56 11.4344 47.1495 12.8262 51.5625H33.8193L43.6378 32.8367Z" fill="#D94F04"/>
    <path d="M72.4758 63.4133L68.4903 55.8121L60.9001 70.2883C60.6005 70.8591 60.1403 71.3391 59.5709 71.6745C59.0015 72.0099 58.3454 72.1876 57.6761 72.1875C57.5754 72.1875 57.4718 72.1832 57.3651 72.1746C56.6436 72.1175 55.9569 71.8546 55.3943 71.42C54.8317 70.9855 54.4194 70.3995 54.211 69.7383L46.0102 43.6648L39.2513 56.5383C38.9533 57.1061 38.4962 57.5842 37.9307 57.9194C37.3652 58.2547 36.7134 58.434 36.0475 58.4375H15.6244C17.7271 62.6327 20.5261 66.762 24.0212 70.8254C28.25 75.741 35.9169 83.6 53.623 95.0619C54.817 95.8423 56.2307 96.2599 57.6783 96.2599C59.1259 96.2599 60.5396 95.8423 61.7337 95.0619C79.4398 83.6 87.1066 75.741 91.3354 70.8254C92.8586 69.0575 94.2873 67.2176 95.6161 65.3125H75.6998C75.0305 65.3126 74.3744 65.1349 73.805 64.7995C73.2356 64.4641 72.7753 63.9841 72.4758 63.4133ZM104.538 58.4375H99.7278C98.5293 60.819 97.1553 63.1164 95.6161 65.3125H104.538C105.494 65.3125 106.411 64.9503 107.087 64.3057C107.763 63.661 108.143 62.7867 108.143 61.875C108.143 60.9633 107.763 60.089 107.087 59.4443C106.411 58.7997 105.494 58.4375 104.538 58.4375ZM10.8143 51.5625C9.85822 51.5625 8.94134 51.9247 8.26531 52.5693C7.58929 53.214 7.20951 54.0883 7.20951 55C7.20951 55.9117 7.58929 56.786 8.26531 57.4307C8.94134 58.0753 9.85822 58.4375 10.8143 58.4375H15.6244C14.5096 56.2171 13.5741 53.9187 12.8262 51.5625H10.8143Z" fill="#D94F04"/>
</svg>
