<svg width="35" height="36" viewBox="0 0 35 36" fill="none"
    xmlns="http://www.w3.org/2000/svg">
    <path d="M18.2292 15.375C18.2292 15.0766 18.3444 14.7905 18.5495 14.5795C18.7546 14.3685 19.0328 14.25 19.3229 14.25H24.4271C24.7172 14.25 24.9954 14.3685 25.2005 14.5795C25.4056 14.7905 25.5208 15.0766 25.5208 15.375C25.5208 15.6734 25.4056 15.9595 25.2005 16.1705C24.9954 16.3815 24.7172 16.5 24.4271 16.5H19.3229C19.0328 16.5 18.7546 16.3815 18.5495 16.1705C18.3444 15.9595 18.2292 15.6734 18.2292 15.375V15.375ZM19.3229 22.5C19.0328 22.5 18.7546 22.6185 18.5495 22.8295C18.3444 23.0405 18.2292 23.3266 18.2292 23.625C18.2292 23.9234 18.3444 24.2095 18.5495 24.4205C18.7546 24.6315 19.0328 24.75 19.3229 24.75H24.4271C24.7172 24.75 24.9954 24.6315 25.2005 24.4205C25.4056 24.2095 25.5208 23.9234 25.5208 23.625C25.5208 23.3266 25.4056 23.0405 25.2005 22.8295C24.9954 22.6185 24.7172 22.5 24.4271 22.5H19.3229ZM15.7208 14.67C15.8283 14.567 15.9145 14.4428 15.9743 14.3048C16.034 14.1668 16.0662 14.0178 16.0688 13.8668C16.0714 13.7157 16.0444 13.5657 15.9893 13.4256C15.9343 13.2855 15.8525 13.1583 15.7486 13.0514C15.6447 12.9446 15.521 12.8604 15.3848 12.8038C15.2486 12.7472 15.1028 12.7194 14.9559 12.7221C14.809 12.7248 14.6642 12.7578 14.53 12.8193C14.3959 12.8808 14.2751 12.9695 14.175 13.08L12.0313 15.285L11.3458 14.58C11.1385 14.3813 10.8643 14.2731 10.5809 14.2782C10.2975 14.2834 10.0272 14.4014 9.8268 14.6076C9.62641 14.8137 9.51162 15.0918 9.50662 15.3832C9.50162 15.6747 9.6068 15.9567 9.8 16.17L11.2583 17.67C11.4634 17.8807 11.7414 17.999 12.0313 17.999C12.3211 17.999 12.5991 17.8807 12.8042 17.67L15.7208 14.67ZM15.7208 21.33C15.9257 21.5409 16.0407 21.8269 16.0407 22.125C16.0407 22.4231 15.9257 22.7091 15.7208 22.92L12.8042 25.92C12.5991 26.1307 12.3211 26.249 12.0313 26.249C11.7414 26.249 11.4634 26.1307 11.2583 25.92L9.8 24.42C9.69254 24.317 9.60635 24.1928 9.54657 24.0548C9.48679 23.9168 9.45465 23.7678 9.45205 23.6168C9.44946 23.4657 9.47648 23.3157 9.53149 23.1756C9.5865 23.0355 9.66838 22.9083 9.77224 22.8014C9.8761 22.6946 9.99981 22.6104 10.136 22.5538C10.2722 22.4972 10.4181 22.4694 10.5649 22.4721C10.7118 22.4748 10.8566 22.5078 10.9908 22.5693C11.125 22.6308 11.2457 22.7195 11.3458 22.83L12.0313 23.535L14.175 21.33C14.3801 21.1193 14.6581 21.001 14.9479 21.001C15.2378 21.001 15.5158 21.1193 15.7208 21.33V21.33ZM23.3246 6.126C23.2635 5.27629 22.8922 4.48179 22.2852 3.90198C21.6782 3.32217 20.8805 2.99995 20.0521 3H14.9479C14.1408 3.00003 13.362 3.30601 12.7605 3.85946C12.1589 4.4129 11.7768 5.17498 11.6871 6H9.11458C8.24434 6 7.40974 6.35558 6.79439 6.98851C6.17904 7.62145 5.83333 8.47989 5.83333 9.375V29.625C5.83333 30.5201 6.17904 31.3785 6.79439 32.0115C7.40974 32.6444 8.24434 33 9.11458 33H25.8854C26.3163 33 26.743 32.9127 27.1411 32.7431C27.5392 32.5735 27.9009 32.3249 28.2056 32.0115C28.5103 31.6981 28.752 31.326 28.9169 30.9166C29.0818 30.5071 29.1667 30.0682 29.1667 29.625V9.375C29.1667 8.93179 29.0818 8.49292 28.9169 8.08344C28.752 7.67397 28.5103 7.30191 28.2056 6.98851C27.9009 6.67512 27.5392 6.42652 27.1411 6.25691C26.743 6.0873 26.3163 6 25.8854 6H23.3129L23.3246 6.126V6.126ZM23.3246 6.144L23.3333 6.375C23.3333 6.297 23.3304 6.2205 23.326 6.144H23.3246ZM14.9479 9.75H20.0521C21.1896 9.75 22.1915 9.1545 22.7806 8.25H25.8854C26.1755 8.25 26.4537 8.36853 26.6588 8.5795C26.8639 8.79048 26.9792 9.07663 26.9792 9.375V29.625C26.9792 29.9234 26.8639 30.2095 26.6588 30.4205C26.4537 30.6315 26.1755 30.75 25.8854 30.75H9.11458C8.8245 30.75 8.5463 30.6315 8.34119 30.4205C8.13607 30.2095 8.02083 29.9234 8.02083 29.625V9.375C8.02083 9.07663 8.13607 8.79048 8.34119 8.5795C8.5463 8.36853 8.8245 8.25 9.11458 8.25H12.2194C12.8085 9.1545 13.8104 9.75 14.9479 9.75ZM14.9479 5.25H20.0521C20.3422 5.25 20.6204 5.36853 20.8255 5.5795C21.0306 5.79048 21.1458 6.07663 21.1458 6.375C21.1458 6.67337 21.0306 6.95952 20.8255 7.1705C20.6204 7.38147 20.3422 7.5 20.0521 7.5H14.9479C14.6578 7.5 14.3796 7.38147 14.1745 7.1705C13.9694 6.95952 13.8542 6.67337 13.8542 6.375C13.8542 6.07663 13.9694 5.79048 14.1745 5.5795C14.3796 5.36853 14.6578 5.25 14.9479 5.25Z" fill="#D94F04"/>
</svg>
