<svg width="35" height="36" viewBox="0 0 35 36" fill="none"
    xmlns="http://www.w3.org/2000/svg">
    <path d="M27.7083 28.5H7.29167V12H27.7083M27.7083 4.5H26.25V1.5H23.3333V4.5H11.6667V1.5H8.75V4.5H7.29167C6.51812 4.5 5.77625 4.81607 5.22927 5.37868C4.68229 5.94129 4.375 6.70435 4.375 7.5V28.5C4.375 29.2956 4.68229 30.0587 5.22927 30.6213C5.77625 31.1839 6.51812 31.5 7.29167 31.5H27.7083C28.4819 31.5 29.2237 31.1839 29.7707 30.6213C30.3177 30.0587 30.625 29.2956 30.625 28.5V7.5C30.625 6.70435 30.3177 5.94129 29.7707 5.37868C29.2237 4.81607 28.4819 4.5 27.7083 4.5ZM24.1063 16.59L22.5604 15L15.4438 22.32L12.3521 19.14L10.8062 20.73L15.4438 25.5L24.1063 16.59V16.59Z" fill="#D94F04"/>
</svg>
